<?xml version="1.0" encoding="iso-8859-1"?>
<!-- Generator: Adobe Illustrator 18.1.1, SVG Export Plug-In . SVG Version: 6.00 Build 0)  -->
<svg version="1.1" id="Capa_1" xmlns="http://www.w3.org/2000/svg" xmlns:xlink="http://www.w3.org/1999/xlink" x="0px" y="0px"
	 viewBox="0 0 50.91 50.91" style="enable-background:new 0 0 50.91 50.91;" xml:space="preserve">
<g>
	<g>
		<path style="fill:#010002;" d="M49.914,23.774l-8.791-4.808l2.816-9.616c0.197-0.672,0.01-1.398-0.484-1.893
			c-0.496-0.495-1.221-0.684-1.893-0.484L31.947,9.79l-4.811-8.792c-0.336-0.615-0.98-0.997-1.68-0.997
			c-0.701,0-1.344,0.382-1.68,0.997L18.965,9.79L9.35,6.973C8.678,6.774,7.952,6.962,7.457,7.457
			C6.961,7.952,6.775,8.678,6.973,9.35l2.816,9.617l-8.791,4.808C0.383,24.112,0,24.756,0,25.456s0.383,1.344,0.998,1.681
			l8.791,4.808l-2.816,9.616c-0.197,0.672-0.012,1.398,0.484,1.893c0.363,0.364,0.854,0.561,1.354,0.561
			c0.18,0,0.361-0.025,0.537-0.077l9.617-2.817l4.811,8.792c0.336,0.615,0.979,0.997,1.68,0.997c0.699,0,1.344-0.382,1.68-0.997
			l4.811-8.792l9.615,2.817c0.178,0.052,0.359,0.077,0.539,0.077c0.5,0,0.99-0.197,1.354-0.561c0.496-0.495,0.682-1.221,0.484-1.893
			l-2.816-9.616l8.791-4.808c0.613-0.337,0.996-0.981,0.996-1.681S50.528,24.111,49.914,23.774z M37.936,29.321
			c0,0-0.002,0.001-0.004,0.001l-5.072,2.774c-0.322,0.176-0.586,0.44-0.762,0.762l-2.773,5.072v0.001l-3.867,7.07l-6.643-12.144
			c-0.176-0.321-0.439-0.586-0.762-0.762l-5.072-2.774l-0.002-0.001l-7.068-3.866l7.068-3.866c0-0.001,0.002-0.001,0.002-0.001
			l5.072-2.774c0.322-0.176,0.586-0.44,0.762-0.762l6.643-12.144l3.867,7.07v0.001l2.773,5.072c0.176,0.322,0.439,0.586,0.762,0.762
			l5.072,2.774c0.002,0,0.002,0,0.004,0.001l7.068,3.866L37.936,29.321z"/>
		<path style="fill:#010002;" d="M25.457,20.308c-3.213,0-5.828,2.614-5.828,5.827c0,3.212,2.615,5.826,5.828,5.826
			s5.826-2.614,5.826-5.826C31.284,22.922,28.67,20.308,25.457,20.308z M25.457,28.13c-1.102,0-1.996-0.896-1.996-1.995
			c0-1.101,0.895-1.997,1.996-1.997c1.1,0,1.994,0.896,1.994,1.997C27.452,27.235,26.557,28.13,25.457,28.13z"/>
	</g>
</g>
<g>
</g>
<g>
</g>
<g>
</g>
<g>
</g>
<g>
</g>
<g>
</g>
<g>
</g>
<g>
</g>
<g>
</g>
<g>
</g>
<g>
</g>
<g>
</g>
<g>
</g>
<g>
</g>
<g>
</g>
</svg>
