<!DOCTYPE svg PUBLIC "-//W3C//DTD SVG 20010904//EN" "http://www.w3.org/TR/2001/REC-SVG-20010904/DTD/svg10.dtd">
<svg version="1.0" xmlns="http://www.w3.org/2000/svg" width="1600px" height="225px" viewBox="0 0 16000 2250" preserveAspectRatio="xMidYMid meet">
<g id="layer101" fill="#171411" stroke="none">
 <path d="M0 2088 c0 -191 3 -208 36 -208 15 0 24 6 24 15 0 8 9 15 20 15 11 0 20 -7 20 -15 0 -8 9 -15 20 -15 11 0 20 7 20 15 0 9 9 15 25 15 14 0 25 4 25 9 0 5 8 11 19 14 10 2 21 17 24 33 9 45 31 104 39 104 5 0 8 -11 8 -25 0 -14 4 -25 9 -25 12 0 72 20 98 33 13 5 26 7 30 3 4 -4 9 -57 11 -117 l4 -109 44 0 c24 0 44 -4 44 -10 0 -5 9 -10 20 -10 11 0 20 5 20 10 0 6 6 10 14 10 19 0 26 32 26 133 0 80 2 87 20 87 19 0 20 -7 20 -90 0 -73 3 -90 15 -90 8 0 15 -9 15 -20 0 -19 7 -20 115 -20 96 0 115 3 115 15 0 8 7 15 15 15 11 0 15 11 15 40 0 22 5 40 10 40 6 0 10 -9 10 -19 0 -36 12 -51 39 -51 15 0 33 9 41 20 12 16 26 20 77 20 35 0 63 -4 63 -10 0 -5 9 -10 20 -10 11 0 20 5 20 10 0 6 7 10 15 10 8 0 15 -9 15 -20 0 -11 5 -20 10 -20 6 0 10 -27 10 -61 0 -44 6 -71 20 -94 22 -35 43 -45 103 -45 l37 0 0 -48 c0 -35 7 -58 27 -87 36 -54 51 -64 98 -65 33 0 45 6 71 35 28 31 74 146 74 183 0 7 5 12 10 12 6 0 10 43 10 110 0 67 4 110 10 110 6 0 10 -4 10 -10 0 -5 7 -10 15 -10 11 0 15 -12 15 -44 0 -36 4 -46 20 -51 33 -11 50 12 50 66 0 27 4 49 10 49 7 0 8 -163 3 -480 l-6 -480 56 0 57 0 0 -160 c0 -153 1 -160 20 -160 19 0 20 7 20 160 l0 160 28 0 c17 0 37 10 50 23 22 23 22 27 22 395 l0 372 40 0 40 0 0 80 c0 47 4 80 10 80 6 0 10 -70 10 -190 l0 -190 120 0 120 0 0 180 c0 113 4 180 10 180 6 0 10 -50 10 -130 l0 -131 82 3 c78 3 82 4 88 28 4 17 8 21 14 12 4 -7 27 -12 54 -12 36 0 52 6 73 26 33 32 49 25 49 -22 l0 -34 58 0 c32 0 63 5 70 12 7 7 12 43 12 90 0 45 4 78 10 78 6 0 10 7 10 15 0 8 7 15 15 15 11 0 15 13 16 53 1 28 3 44 6 35 3 -12 14 -18 34 -18 l29 0 0 -99 c0 -75 4 -103 15 -115 8 -8 15 -26 15 -40 0 -14 5 -26 10 -26 6 0 10 7 10 15 0 8 5 15 10 15 6 0 10 -18 10 -40 0 -29 4 -40 15 -40 11 0 15 12 15 45 0 55 22 81 70 80 39 0 47 17 49 103 1 45 4 52 21 52 11 0 20 7 20 15 0 32 18 13 24 -25 5 -34 10 -40 31 -40 18 0 25 5 25 20 0 15 7 20 25 20 24 0 25 -3 25 -60 0 -33 4 -60 10 -60 6 0 10 -7 10 -15 0 -8 5 -15 10 -15 6 0 10 -7 10 -15 0 -8 6 -15 13 -15 15 0 37 46 37 77 0 13 4 31 9 41 21 41 31 93 31 155 0 38 4 67 10 67 6 0 10 -27 10 -61 0 -33 5 -69 10 -80 12 -22 36 -25 43 -6 3 7 6 4 6 -7 1 -16 6 -18 39 -12 20 3 56 6 80 6 38 0 42 2 42 25 0 19 5 25 23 25 32 0 47 -18 47 -58 0 -26 3 -33 15 -28 11 4 15 -2 15 -20 0 -23 4 -26 25 -22 14 3 25 1 25 -3 0 -5 20 -9 45 -9 25 0 45 5 45 10 0 6 11 10 25 10 34 0 36 46 3 53 l-23 4 23 2 c18 1 22 7 22 31 0 25 4 30 25 30 18 0 25 -5 25 -20 0 -19 7 -20 110 -20 106 0 110 1 126 25 26 40 34 30 34 -45 l0 -70 35 0 c24 0 35 -5 35 -15 0 -11 12 -15 50 -15 28 0 50 5 50 10 0 6 13 10 29 10 16 0 31 6 35 15 3 8 10 15 16 15 6 0 10 -40 10 -105 l0 -105 100 0 100 0 0 105 0 104 30 16 30 16 0 -118 0 -118 33 -17 c17 -9 40 -19 50 -22 12 -4 17 -16 17 -46 0 -33 3 -40 20 -40 15 0 20 -7 20 -25 0 -22 4 -25 40 -25 33 0 40 3 40 20 0 13 7 20 20 20 18 0 20 7 20 75 0 68 2 75 20 75 19 0 20 -7 20 -105 l0 -105 95 0 95 0 0 104 c0 96 9 132 25 106 3 -5 22 -10 41 -10 l34 0 0 -170 0 -170 165 0 165 0 0 165 0 165 55 0 55 0 0 80 c0 44 4 80 9 80 9 0 21 -128 21 -227 0 -35 4 -63 10 -63 6 0 10 -11 10 -25 0 -22 4 -25 35 -25 33 0 35 2 41 40 l7 40 68 0 c38 0 70 1 70 3 1 1 4 61 8 132 6 124 7 130 28 133 21 3 22 -1 25 -70 l3 -73 87 -3 87 -3 3 -47 c3 -40 6 -47 26 -50 17 -3 22 -10 22 -33 l0 -29 115 0 115 0 0 30 c0 20 5 30 15 30 12 0 15 18 15 100 l0 100 34 0 34 0 -5 48 c-2 26 -5 59 -7 73 -1 18 2 25 10 22 9 -3 13 -43 16 -130 2 -90 7 -128 16 -131 6 -2 12 -12 12 -23 0 -15 7 -19 35 -19 32 0 37 4 51 40 16 39 17 40 65 40 l49 0 0 45 c0 25 5 45 10 45 6 0 10 -11 10 -25 0 -24 3 -25 55 -25 54 0 55 0 55 -30 0 -28 3 -30 35 -30 19 0 35 -4 35 -10 0 -5 20 -10 45 -10 25 0 45 5 45 10 0 6 11 10 25 10 16 0 25 6 25 15 0 12 19 15 115 15 l115 0 2 93 c1 51 3 71 5 45 4 -46 6 -48 34 -48 26 0 29 -3 29 -30 0 -20 5 -30 15 -30 10 0 15 -10 15 -30 0 -30 1 -30 55 -30 l55 0 0 -40 0 -40 85 0 85 0 0 45 c0 25 5 45 10 45 6 0 10 43 10 110 l0 110 45 0 c33 0 45 4 45 15 0 11 12 15 50 15 l50 0 0 -125 c0 -104 2 -125 15 -125 10 0 15 -10 15 -34 0 -21 6 -36 15 -40 8 -3 15 -15 15 -26 0 -16 6 -20 35 -20 28 0 35 4 35 20 0 13 7 20 20 20 16 0 20 7 20 35 0 24 5 35 15 35 11 0 15 12 15 50 l0 50 40 0 40 0 0 105 c0 98 1 105 20 105 11 0 20 -5 20 -11 0 -12 103 -8 133 5 14 7 17 3 17 -18 0 -26 1 -26 75 -26 l75 0 0 -375 c0 -325 2 -376 15 -381 11 -4 15 -21 15 -59 0 -36 7 -66 25 -99 23 -43 25 -58 25 -170 0 -129 8 -216 20 -216 9 0 30 174 30 257 0 55 6 79 30 128 16 33 30 76 30 95 0 20 5 41 11 47 13 13 38 414 39 621 l0 132 55 0 c42 0 55 3 55 15 0 12 14 15 65 15 37 0 65 4 65 10 0 6 7 10 15 10 8 0 15 5 15 10 0 6 9 10 20 10 11 0 20 -4 20 -10 0 -5 9 -10 20 -10 11 0 20 7 20 15 0 9 9 15 25 15 14 0 25 5 25 10 0 6 6 10 14 10 8 0 23 28 36 70 23 72 40 90 40 44 0 -23 3 -25 23 -20 12 4 34 9 50 12 15 4 27 10 27 15 0 5 8 9 19 9 22 0 31 -40 31 -152 l0 -78 45 0 c25 0 45 -4 45 -10 0 -5 9 -10 20 -10 11 0 20 5 20 10 0 6 6 10 14 10 19 0 26 32 26 133 0 80 2 87 20 87 19 0 20 -7 20 -90 0 -53 4 -90 10 -90 6 0 10 -9 10 -20 0 -19 7 -20 120 -20 100 0 120 3 120 15 0 8 5 15 10 15 6 0 10 18 10 41 0 49 20 49 32 1 7 -27 13 -32 38 -32 16 0 35 7 44 15 17 17 136 22 136 5 0 -5 9 -10 20 -10 11 0 20 5 20 11 0 6 7 18 16 27 15 15 16 13 9 -16 -5 -25 -3 -32 9 -32 13 0 16 -13 16 -67 0 -55 4 -71 26 -100 22 -30 30 -33 75 -33 l49 0 0 -35 c0 -69 61 -157 117 -168 30 -6 63 2 63 14 0 5 7 9 15 9 8 0 15 7 15 15 0 8 4 15 9 15 5 0 11 8 14 17 3 10 15 43 26 73 12 30 21 63 21 72 0 10 5 18 10 18 6 0 10 45 11 113 0 61 3 106 6 100 2 -7 13 -13 23 -13 15 0 19 -9 22 -47 3 -44 5 -48 28 -48 21 0 25 5 28 35 4 53 11 80 22 80 7 0 8 -166 3 -480 l-6 -480 105 0 c160 0 148 -35 148 418 l0 372 34 0 34 0 7 68 c11 119 20 101 23 -50 l3 -148 114 0 115 0 0 135 c0 113 2 135 15 135 13 0 15 -22 15 -135 l0 -135 73 0 c76 0 97 9 97 44 0 18 1 18 18 3 30 -28 79 -21 121 15 l36 32 5 -45 5 -44 48 -3 c32 -2 57 2 73 13 22 14 24 22 24 90 0 43 4 75 10 75 6 0 10 7 10 15 0 8 7 15 15 15 11 0 15 14 16 58 1 31 3 49 6 40 3 -12 14 -18 33 -18 l29 0 4 -102 c6 -117 15 -178 28 -178 5 0 10 12 10 28 1 16 3 20 6 10 2 -10 9 -18 14 -18 5 0 9 -16 9 -35 0 -24 5 -35 15 -35 11 0 15 12 15 44 0 25 5 48 10 51 6 3 10 16 11 28 0 12 3 16 6 10 2 -7 20 -13 38 -13 28 0 35 5 44 31 6 18 11 52 11 75 0 32 4 44 15 44 8 0 15 9 15 20 0 11 7 20 15 20 9 0 15 -9 15 -24 0 -37 10 -56 31 -56 12 0 19 7 19 20 0 16 7 20 30 20 l30 0 0 -63 c0 -51 4 -65 20 -77 11 -8 20 -20 20 -27 0 -7 6 -13 13 -13 15 0 37 46 37 80 0 14 4 30 8 35 20 24 32 97 26 160 -5 46 -3 65 5 65 7 0 11 -21 11 -55 0 -34 6 -65 16 -80 18 -27 39 -33 47 -12 3 6 6 2 6 -10 1 -16 7 -23 21 -23 11 0 20 5 20 10 0 6 27 10 60 10 57 0 60 1 60 25 0 20 5 25 25 25 28 0 45 -25 45 -65 0 -20 4 -26 15 -21 11 4 15 -1 15 -19 0 -20 5 -25 24 -25 14 0 28 -5 31 -10 8 -13 85 -13 85 0 0 6 11 10 25 10 24 0 25 2 25 65 0 63 1 65 25 65 18 0 25 -5 25 -20 0 -19 7 -20 110 -20 99 0 111 2 122 20 21 34 28 23 28 -45 l0 -65 40 0 c29 0 40 -4 40 -15 0 -17 35 -19 113 -9 34 5 47 12 53 28 5 13 9 -19 11 -87 l4 -108 102 3 102 3 5 103 c5 99 6 103 33 117 l27 14 0 -119 0 -119 45 -22 c42 -21 45 -25 45 -61 0 -34 3 -38 25 -38 20 0 25 -5 25 -25 0 -22 4 -25 40 -25 29 0 40 4 40 15 0 8 9 15 20 15 18 0 20 7 20 81 0 71 2 80 18 77 15 -3 17 -17 20 -106 l3 -102 94 0 95 0 0 104 c0 96 9 132 25 106 3 -5 19 -10 35 -10 l30 0 2 -167 3 -168 168 -3 167 -2 0 160 0 160 55 0 55 0 0 84 c0 138 17 108 24 -42 4 -75 10 -153 14 -172 7 -32 11 -35 45 -38 34 -3 37 -1 37 22 0 51 7 56 81 56 l69 0 1 83 c0 45 4 105 7 132 6 42 11 51 30 53 21 3 22 0 22 -72 l0 -76 90 0 90 0 0 -49 c0 -44 3 -50 23 -53 16 -2 23 -11 25 -30 3 -26 6 -28 53 -28 l49 0 0 400 0 400 -8000 0 -8000 0 0 -162z"/>
 </g>

</svg>