<?xml version="1.0" encoding="UTF-8" standalone="no"?>
<svg
   xmlns:dc="http://purl.org/dc/elements/1.1/"
   xmlns:cc="http://creativecommons.org/ns#"
   xmlns:rdf="http://www.w3.org/1999/02/22-rdf-syntax-ns#"
   xmlns:svg="http://www.w3.org/2000/svg"
   xmlns="http://www.w3.org/2000/svg"
   xmlns:sodipodi="http://sodipodi.sourceforge.net/DTD/sodipodi-0.dtd"
   xmlns:inkscape="http://www.inkscape.org/namespaces/inkscape"
   version="1.0"
   width="750"
   height="750"
   viewBox="0 0 7500 7500"
   preserveAspectRatio="xMidYMid meet"
   id="svg619"
   sodipodi:docname="logo_insurgent_lab_square_far.svg"
   inkscape:version="0.92.4 (5da689c313, 2019-01-14)"
   style="enable-background:new"
   inkscape:export-filename="/media/DATA/MEGA/Documents/INSURGENT/LOGOS/NEW/GAMING/PNG/SQUARES/logo_insurgent_lab_square_far_2160x2160.png"
   inkscape:export-xdpi="276.48001"
   inkscape:export-ydpi="276.48001">
  <metadata
     id="metadata625">
    <rdf:RDF>
      <cc:Work
         rdf:about="">
        <dc:format>image/svg+xml</dc:format>
        <dc:type
           rdf:resource="http://purl.org/dc/dcmitype/StillImage" />
        <dc:title />
      </cc:Work>
    </rdf:RDF>
  </metadata>
  <defs
     id="defs623" />
  <sodipodi:namedview
     pagecolor="#ffffff"
     bordercolor="#666666"
     borderopacity="1"
     objecttolerance="10"
     gridtolerance="10"
     guidetolerance="10"
     inkscape:pageopacity="0"
     inkscape:pageshadow="2"
     inkscape:window-width="1920"
     inkscape:window-height="1016"
     id="namedview621"
     showgrid="false"
     inkscape:zoom="1.4142136"
     inkscape:cx="298.92538"
     inkscape:cy="371.5394"
     inkscape:window-x="1920"
     inkscape:window-y="27"
     inkscape:window-maximized="1"
     inkscape:current-layer="svg619"
     fit-margin-top="0"
     fit-margin-left="0"
     fit-margin-right="0"
     fit-margin-bottom="0" />
  <g
     inkscape:groupmode="layer"
     id="layer18"
     inkscape:label="BLACK BG"
     style="display:inline"
     transform="translate(240.00021,2820.0001)">
    <g
       id="g4990"
       transform="translate(-464.07568,-473.01946)">
      <g
         transform="matrix(1.0683761,0,0,1.6891892,224.07547,-2346.9806)"
         id="layer101"
         style="fill:#030202;stroke:none">
        <path
           inkscape:connector-curvature="0"
           id="path2"
           d="M 0,2220 V 0 H 3510 7020 V 2220 4440 H 3510 0 Z" />
      </g>
    </g>
  </g>
  <g
     inkscape:groupmode="layer"
     id="layer15"
     inkscape:label="WHITE MASK"
     style="display:none"
     transform="translate(240.00021,2820.0001)" />
  <g
     id="layer103"
     style="fill:#2a2a2a;stroke:none"
     transform="translate(240.00021,1592.5865)">
    <path
       d="m 2685,3671 c -19,-89 31,-215 127,-315 l 63,-67 88,-10 c 49,-6 91,-8 94,-5 3,3 -34,50 -83,103 -87,95 -186,209 -250,288 l -32,38 z"
       id="path142"
       style="fill:#504f4f;fill-opacity:1"
       inkscape:connector-curvature="0" />
    <path
       d="m 2878,2267 c -102,-88 -120,-108 -101,-114 9,-3 236,183 241,198 2,5 -5,9 -15,9 -10,-1 -66,-42 -125,-93 z"
       id="path174"
       inkscape:connector-curvature="0" />
    <path
       d="m 3363,2343 c -11,-33 -76,-178 -110,-247 -23,-46 -33,-76 -29,-92 4,-13 10,-24 15,-24 4,0 34,66 66,148 70,178 87,232 74,232 -5,0 -12,-8 -16,-17 z"
       id="path178"
       inkscape:connector-curvature="0" />
    <path
       d="m 3377,2247 c -22,-61 -59,-155 -83,-206 -44,-94 -44,-95 -33,-150 l 12,-56 15,33 c 9,17 20,32 24,32 5,0 7,-15 4,-32 -14,-89 -16,-128 -9,-128 4,0 24,26 43,58 32,53 35,55 40,32 l 6,-25 17,25 c 25,39 111,225 151,330 20,52 39.3483,104.6742 45.3483,118.6742 6,14 12.4017,34.0513 13.9775,37.8613 24.9635,60.788 17.0112,55.2417 -6.3258,55.3969 -21,0 -26,-18.9324 -36,-55.9324 -12,-48 -142,-359 -148,-353 -2,2 19,78 46,168 27,90 49.1274,171.045 57.3258,197 16.1647,50.8874 3.8952,44.0485 -17.8726,43.2583 -17,0.4307 -17.1724,-0.01 -52.4532,-101.2583 -44,-117 -118,-282 -123,-276 -2,2 11,62 30,133 20,70 38,144 42,163 4,19 9,43 11,53 6.75,31.0313 3.7188,28.0938 -1.2812,28.0938 -4,0 -26.7188,-62.0938 -47.7188,-124.0938 z"
       id="path180"
       inkscape:connector-curvature="0"
       sodipodi:nodetypes="cccccscscccccscccsscccccscsc" />
    <path
       d="M 3718.8466,2307.3934 C 3708.8353,2270.4047 3720,2279 3786,2121 c 14,-33 15,-33 34,-16 11,10 20,24 20,31 0,16 -99.9824,231.6538 -106.6777,216.0598 -4.779,-11.1309 -5.6031,-15.0598 -14.4757,-44.6664 z"
       id="path186"
       inkscape:connector-curvature="0"
       sodipodi:nodetypes="cccssc" />
    <path
       d="m 3688,2194 -16,-44 40,-55 c 39,-55 51,-64 63,-44 5,7 -55,169 -69,186 -1,1 -9,-18 -18,-43 z"
       id="path188"
       inkscape:connector-curvature="0" />
    <path
       d="m 4312,2158 c -9,-11 -33,-40 -52,-62 -68,-81 -65,-76 -49,-76 13,0 139,140 139,154 0,13 -21,5 -38,-16 z"
       id="path192"
       inkscape:connector-curvature="0" />
    <path
       d="m 4399,2153 c -9,-2 -47,-40 -83,-83 -55,-65 -65,-84 -60,-104 8,-33 32,-53 49,-40 7,5 32,25 56,44 l 43,35 -37,-55 c -41,-61 -44,-72 -22,-90 13,-11 22,-8 53,17 60,47 70,52 50,20 -10,-15 -25,-39 -35,-53 -15,-23 -15,-27 0,-41 14,-15 20,-12 66,26 28,24 51,40 51,36 0,-3 -13,-26 -30,-49 -29,-43 -29,-44 -10,-61 20,-18 22,-16 84,46 36,35 67,76 71,91 15,60 -61,175 -159,240 -40,27 -53,30 -87,21 z"
       id="path194"
       inkscape:connector-curvature="0" />
    <path
       d="m 3938,2123 c -2,-10 -2,-26 0,-36 3,-14 7,-16 18,-6 18,15 18,33 0,48 -11,9 -14,8 -18,-6 z"
       id="path196"
       inkscape:connector-curvature="0" />
    <path
       d="m 3641,2074 -21,-56 26,-59 c 15,-32 29,-59 33,-59 3,0 14,20 25,45 18,45 18,46 -4,108 -13,34 -26,66 -30,70 -4,4 -17,-18 -29,-49 z"
       id="path198"
       inkscape:connector-curvature="0" />
    <path
       d="m 2644,2069 c -37,-54 -148,-145 -201,-165 -24,-9 -43,-20 -43,-24 0,-12 90,-109 112,-121 20,-11 58,-4 58,11 0,4 -18,31 -41,60 -22,28 -39,53 -37,55 2,2 29,-18 59,-45 51,-44 58,-48 75,-35 18,13 17,16 -23,74 -44,64 -32,67 26,7 39,-41 47,-43 73,-20 17,16 16,20 -27,80 -36,52 -40,61 -20,48 14,-9 25,-20 25,-24 0,-5 14,-18 31,-30 29,-21 31,-21 49,-5 38,34 35,52 -20,115 -29,33 -55,60 -60,60 -4,0 -20,-18 -36,-41 z"
       id="path200"
       inkscape:connector-curvature="0" />
    <path
       style="stroke-width:0.1"
       d="m 388.19922,147.27539 c 0.125,-0.125 0.3,-0.12461 0.5,0.0254 0.3,0.4 0.3,0.99844 0,1.39844 C 388.29922,148.99922 388,148.7 388,148 c 0,-0.35 0.0742,-0.59961 0.19922,-0.72461 z"
       id="path5469"
       transform="scale(10)"
       inkscape:connector-curvature="0" />
    <path
       style="stroke-width:0.1"
       d="m 384.80078,112 c -1.2,0 -1.00078,14.8 0.19922,15.5 0.6,0.4 0.0996,2.30078 -1.40039,4.80078 -3.6,6.2 -5.49961,13.79883 -4.59961,17.79883 0.6,2.9 0.8,3.10039 1.5,1.40039 3.5,-9.6 3.80039,-9.7 1.90039,-0.5 -1.90043,9.33689 -2.64891,16.06385 -2.98701,24.6585 -0.22926,3.94819 0.1231,7.0896 0.59959,10.78144 0.50464,2.93411 0.23083,1.36706 0.46578,0.0817 0.31589,-1.72814 0.95228,-5.9029 2.62086,-12.82243 1.25744,-6.93424 2.4971,-12.36438 3.49998,-18.89844 0.4,-2.1 1,-3.80078 1.5,-3.80078 -0.61746,8.48994 -1.38498,16.04091 -2.19922,23.59961 -1.1,10.3 -0.30078,25.60039 1.19922,21.90039 0.4,-1.1 0.80078,-4.40039 0.80078,-7.40039 0.1,-6.5 2.39922,-15.50039 5.69922,-22.40039 1.3,-2.9 2.20078,-4.29922 1.80078,-3.19922 -1.8,6.4 -3.40039,16.50039 -3.40039,21.90039 0,5.3 0.49961,7.00039 3.09961,10.90039 1.7,2.6 4.10117,5.39922 5.20117,6.19922 1.2,0.8 2.29844,1.5 2.39844,1.5 0.2,0 -0.89844,-2.39922 -2.39844,-5.19922 -2.2,-4.4 -2.70117,-6.60078 -2.70117,-12.80078 0,-7.1 0.29961,-8 5.09961,-17 5,-9.1 7.30078,-17.00039 7.30078,-24.40039 0,-2.6 -0.99961,-3.89961 -5.59961,-7.59961 -6,-4.8 -13.40117,-13.99922 -16.70117,-20.69922 -1.2,-2.4 -2.49844,-4.30078 -2.89844,-4.30078 z"
       id="path202"
       transform="scale(10)"
       inkscape:connector-curvature="0"
       sodipodi:nodetypes="ccccccccsccccccccsccscscsccsc" />
    <path
       d="m 4090,2036 c 0,-4 16,-46 36,-92 20,-47 35,-87 32,-89 -3,-3 -26,26 -52,65 -25,38 -50,70 -54,70 -13,0 -42,-68 -42,-98 0,-32 37,-150 76,-242 15,-36 30,-98 35,-139 5,-40 10,-75 12,-77 4,-4 205,60 212,68 5,5 -31,108 -73,215 -43,106 -182,351 -182,319 z"
       id="path204"
       inkscape:connector-curvature="0" />
    <path
       d="m 3160,1973 c -1,-32 -6,-68 -13,-81 -19.875,-58.25 -1.5,-55.75 -37,27 -12,28 -37,63 -53,78 l -30,28 23,-38 c 27,-46 37,-142 22,-229 -4.7069,-31.5361 -4.967,-31.3842 -7.5739,-63.8669 17.3931,26.5798 17.3411,26.4616 30.5739,60.8669 9,26 18,45 20,43 2,-2 -5,-41 -16,-88 -10,-47 -18,-114 -17,-150 l 1,-65 8,65 c 5,36 17,92 28,125 l 19,60 1,-105 c 0.8157,-90.5377 2.2632,-117.8027 6.3862,-131.7203 7.8081,4.4396 15.9993,10.777 23.3335,15.2325 0.6718,7.0489 -0.2822,-2.3556 1.2803,14.4879 1,20 7,66 14,102 l 14,65 1,-62 c 0.5113,-31.1895 1.018,-49.4866 2.8387,-64.5186 12.7583,4.4993 13.6621,4.8827 20.1058,7.1411 1.7562,6.3209 2.352,7.523 4.3993,14.1276 9.9999,46.125 16.6562,218.2499 3.6562,271.2499 -11.48,50.3356 -45.5752,135.7635 -59.5889,155.0518 -7.1905,13.4585 -4.6757,15.0314 -7.066,-0.716 C 3161.115,2016.5062 3160,1996.1469 3160,1973 Z"
       id="path206"
       inkscape:connector-curvature="0"
       sodipodi:nodetypes="cccccccccscccccccccccccccccccc" />
    <path
       d="m 3596,1964 c -11,-30 -5,-59 25,-119 32,-65 32,-65 7,70 -11,65 -21,79 -32,49 z"
       id="path208"
       inkscape:connector-curvature="0" />
    <path
       d="m 4618,1801 c -51,-49 -27,-64 61,-38 l 43,13 -32,27 c -17,15 -35,27 -38,26 -4,-1 -19,-13 -34,-28 z"
       id="path214"
       inkscape:connector-curvature="0" />
    <path
       d="m 4316,1789 c -14,-20 -12,-22 37,-48 29,-15 62,-33 74,-41 20,-13 25,-13 40,3 16,16 16,19 2,27 -9,5 -39,25 -68,45 -29,19 -57,35 -61,35 -5,0 -16,-9 -24,-21 z"
       id="path216"
       inkscape:connector-curvature="0" />
    <path
       d="m 4636,1722 c -3,-5 8,-21 23,-36 l 29,-28 71,13 c 39,7 71,17 71,21 0,4 -13,14 -30,23 -31,16 -155,21 -164,7 z"
       id="path224"
       inkscape:connector-curvature="0" />
    <path
       d="m 4827,1616 c -60,-64 -52,-103 13,-59 14,9 26,17 27,18 1,0 9,17 17,37 12,28 13,38 3,45 -8,7 -26,-5 -60,-41 z"
       id="path228"
       style="fill:#504f4f;fill-opacity:1"
       inkscape:connector-curvature="0" />
    <path
       d="m 4720,1632 c 0,-5 8,-17 19,-26 18,-16 20,-16 47,8 l 29,25 -47,1 c -27,0 -48,-4 -48,-8 z"
       id="path232"
       style="fill:#504f4f;fill-opacity:1"
       inkscape:connector-curvature="0" />
    <path
       style="stroke-width:0.1"
       d="m 344.59961,118 c 0.2,0 0.40039,0.7 0.40039,1.5 0,0.8 -0.4,1.5 -1,1.5 -0.5,0 -0.70039,-0.7 -0.40039,-1.5 0.4,-0.8 0.8,-1.5 1,-1.5 z"
       id="path6345"
       transform="scale(10)"
       inkscape:connector-curvature="0" />
    <path
       style="stroke-width:0.1"
       d="m 346.67838,115.11114 c -5.57643,-3.39689 -12.5586,-10.09589 -17.47916,-8.51153 -1.8,1.2 -2.2,2.40117 -2,5.20117 0.003,0.0487 0.0438,0.0938 0.0488,0.14258 C 327.0012,113.5696 328,118.71178 328,121.5 c 0,3 0.40078,3.60039 3.30078,4.40039 1.7,0.6 6.39922,0.80039 10.19922,0.40039 3.9,-0.3 8.70078,-0.5 10.80078,-0.5 7.45597,1.1645 13.95461,1.00516 18.07016,0.63755 -8.8397,-4.06355 -21.22534,-19.93934 -21.23793,-15.27119 -0.015,5.57881 -1.69881,4.51902 -2.45463,3.944 z m -5.39713,2.0412 c -0.0625,-2.01779 0.11458,2.19922 0,0 z m -2.52283,-3.01157 c 4.82637,1.12799 2.67316,5.6711 -0.2254,5.87645 -7.19433,1.2738 -8.44686,-3.34604 -9.47354,-3.75962 1.3598,-0.18155 7.84133,-2.36981 9.69894,-2.11683 z M 371.5,115.47461 c 0.15,-0.075 0.45039,-0.025 0.90039,0.125 1.9,0.7 2.00039,1.60117 0.40039,3.20117 -1.7,1.7 -3.30078,1.49922 -1.80078,-0.30078 0.6,-0.8 0.9,-1.90039 0.5,-2.40039 -0.15,-0.35 -0.15,-0.55 0,-0.625 z"
       id="path244"
       transform="scale(10)"
       inkscape:connector-curvature="0"
       sodipodi:nodetypes="ccccsccccscccccccscsccs" />
    <path
       d="m 3750,820 c -34,-11 -56,-24 -58,-34 -3,-16 -5,-16 -16,-1 -16,22 -62,10 -71,-18 l -6,-22 -11,23 c -9,19 -19,22 -64,22 -50,0 -54,-2 -60,-27 -11,-54 -18,-58 -23,-13 l -6,45 -19,-28 c -20,-30 -37,-140 -18,-122 6,6 12,21 15,35 3,19 5,16 6,-11 1,-33 5,-37 40,-47 76,-23 156,-7 235,48 42,29 102,105 119,153 7,20 8,20 -63,-3 z"
       id="path252"
       inkscape:connector-curvature="0" />
  </g>
  <g
     id="layer104"
     style="fill:#504f4f;stroke:none"
     transform="translate(240.00021,1592.5865)">
    <path
       d="m 4269,3608 c -42,-51 -120,-141 -173,-200 -53,-59 -96,-109 -96,-110 0,-2 35,-4 78,-5 l 77,-2 62,57 c 61,56 119,148 128,202 14,81 16,107 8,128 -8,20 -14,15 -84,-70 z"
       id="path259"
       inkscape:connector-curvature="0" />
    <g
       id="g4162">
      <g
         style="fill:#2c1901;stroke:none;enable-background:new"
         id="layer102">
        <path
           sodipodi:nodetypes="cccccccascsccscsccc"
           inkscape:connector-curvature="0"
           transform="scale(10)"
           id="path47"
           d="m 333.63672,159.12695 c -0.49512,0.31641 0.45117,3.03516 2.76367,7.47266 2,3.7 2.74753,6.50528 3.29883,7.80078 0.37452,0.73258 1.2617,3.01291 1.65234,3.82227 0.99289,1.79775 11.64883,23.77812 17.04883,38.57812 1.67939,4.31522 3.65431,8.57749 4.87109,12.49805 l 1.49414,6.19531 c 0,0 0.18573,1.04045 0.57322,1.32668 0.6746,0.49831 1.67981,0.27066 2.501,0.27488 4.39843,0.0226 5.16055,0.60469 0.0605,-13.19531 -2.1,-5.8 -3.90039,-10.90078 -3.90039,-11.30078 0,-0.3 -1.39961,-3.59883 -3.09961,-7.29883 -1.7,-3.8 -3.60078,-8.10078 -4.30078,-9.80078 -0.7,-1.6 -2.19883,-5 -3.29883,-7.5 -1.1,-2.5 -2.80078,-6.5 -3.80078,-9 -3.5,-9.1 -7.49961,-15 -10.09961,-15 -0.7,0 -2.20078,-1.19922 -3.30078,-2.69922 -1.35,-1.6875 -2.16582,-2.36367 -2.46289,-2.17383 z"
           style="fill:#ff9921;fill-opacity:1;stroke:#00ff00;stroke-width:0.1" />
        <path
           inkscape:connector-curvature="0"
           style="fill:#2a2a2a;fill-opacity:1"
           id="path67"
           d="m 2680,2174 c 0,-3 15,-24 33,-45 17,-22 47,-57 66,-79 34,-41 51,-50 51,-27 0,16 -118,151 -137,155 -7,2 -13,0 -13,-4 z" />
        <path
           inkscape:connector-curvature="0"
           style="fill:#ff9921;fill-opacity:1"
           id="path87"
           d="m 2832,1881 c -12,-27 -22,-55 -22,-62 0,-7 -11,-32 -25,-56 -29,-49 -95,-225 -95,-253 0,-16 28,-30 75,-36 12,-1 39,-11 82,-30 41,-19 50,-18 63,6 9,17 7,22 -17,32 -15,6 -46,19 -69,30 -22,10 -46,18 -52,18 -7,0 -12,7 -12,15 0,19 39,160 55,200 23,55 55,155 55,170 0,29 -15,15 -38,-34 z" />
        <path
           inkscape:connector-curvature="0"
           style="fill:#ff9921;fill-opacity:1"
           id="path89"
           d="m 3545,1864 c -13,-33 -13,-41 6,-97 26,-77 27,-78 67,-112 54,-45 58,-22 16,101 -54,162 -62,172 -89,108 z" />
        <path
           sodipodi:nodetypes="ccccc"
           inkscape:connector-curvature="0"
           style="fill:#ff9921;fill-opacity:1"
           id="path95"
           d="m 2370.9699,1759.8449 c 21.1491,-10.3934 47.2462,-27.4646 60.2877,-32.884 11.3439,12.4115 17.1181,18.8513 28.9781,31.7862 -11.5629,11.6091 -35.2049,29.9998 -47.4981,40.7564 -10.6967,-9.7487 -29.2808,-28.3103 -41.7677,-39.6586 z" />
        <path
           sodipodi:nodetypes="cscsccc"
           inkscape:connector-curvature="0"
           style="fill:#ff9921;fill-opacity:1"
           id="path97"
           d="m 2629.625,1743.125 c -27,-14 -56.1616,-28.5482 -61,-25 -28.125,20.625 -23.125,-3 6,-30 15,-7 22,-7 28,2 8,12 29,26 80,53 13,7 20,15 16,18 -10,10 -16,9 -69,-18 z" />
        <path
           sodipodi:nodetypes="ccccc"
           inkscape:connector-curvature="0"
           style="fill:#ff9921;fill-opacity:1"
           id="path99"
           d="m 2283.6842,1668.4239 c 20.214,-8.809 53.0324,-19.087 69.3009,-21.7984 26.7802,27.5076 42.019,42.6336 60.4709,60.9896 -17.3864,9.386 -38.5971,21.9686 -63.9423,29.889 -9.4896,-10.1876 -52.9147,-55.9927 -65.8295,-69.0802 z" />
        <path
           sodipodi:nodetypes="ccccccccccsccaasccscscccccsccscscc"
           inkscape:connector-curvature="0"
           style="fill:#ff9921;fill-opacity:1"
           id="path103"
           d="m 3469,1662 c -36,-37 -64,-80 -57,-88 2,-2 24,17 48,43 l 45,46 3,-117 3,-116 37,-25 c 36,-24 30,-35 -9,-15 -14,8 -27,7 -49,-5 -37,-19 -40,-40 -5,-31 22,6 25,3 25,-20 0,-17 -4.75,-24.25 -18.75,-27.25 -11,-3 -151.9569,-0.3258 -148.9569,-5.3258 7,-12 165.4457,-6.2127 248.2069,-6.1742 25.8419,0.012 51.6761,2.9645 77.5,2 20.7569,-0.7753 54,-5.25 62,-6.25 8,-1 32,-4 53,-7 41,-7 45,0 18,35 -15,20 -27,24 -75,24 -31,0 -59,4 -62,8 -3,5 4,9 15,9 11,0 22,4 25,8 3,5 18,7 34,4 33,-4 50,12 33,32 -6,7 -8,15 -5,18 10,11 -26,68 -44,68 -9,-1 -28,-7 -42,-15 -42,-24 -47,-17 -7,12 41,29 45,41 20,64 -10,9 -26,26 -36,38 -10,12 -23,21 -29,19 -13,-5 -58,34 -58,50 0,8 -56,44 -64,42 -1,-1 -17,-17 -37,-38 z" />
        <path
           sodipodi:nodetypes="cccscccccscccczcaccscacsaccccsscscccc"
           inkscape:connector-curvature="0"
           id="path105"
           transform="scale(10)"
           d="m 318.40039,111.5 -4.20117,7.19922 c -2.3,3.9 -4.92602,7.69344 -5.5,8.5 -0.54532,0.76629 -1.77112,2.71599 -3,4.10156 -1.27749,1.44038 -3.09809,2.95615 -4.19922,3.69922 -1.06742,0.98613 -2.1925,1.85546 -3.59961,2.80078 -1.48501,1.30936 -2.1682,1.87903 -3.30078,2.5 -1.6,0.7 -1.79883,1.5 -1.29883,6.5 0.7,6 4.19844,17.8 5.89844,20 0.6,0.7 1.20039,1.09844 1.40039,0.89844 0.3,-0.3 -1.09883,-5.89922 -2.29883,-9.69922 -0.3,-0.8 -0.8,-4.10078 -1,-7.30078 -0.4,-4.9 -0.10156,-6.09961 1.89844,-8.59961 0.79318,-1.01199 0.85817,-1.15109 1.3125,-1.57031 -0.0478,3.23369 0.90215,8.46596 1.77539,10.66992 0.87324,2.20396 2.39453,2.39453 2.39453,2.39453 0,0 -0.66482,-1.57196 -0.88086,-2.39453 -1.00164,-3.8137 -2.03506,-8.67309 -1.89843,-11.67578 0.21011,-0.20007 0.95565,-0.78005 1.10664,-0.93714 0.0917,0.11887 0.008,0.72427 0.21133,3.2046 0.10906,1.32714 0.58152,4.98648 0.99956,6.43871 0.39593,1.45223 0.35412,1.42583 0.55878,2.13113 0.23688,0.81633 0.65818,2.35133 0.77404,2.4297 0,0 -0.39781,-5.22426 -0.7239,-8.10917 -0.18687,-1.65327 -0.35628,-3.97796 -0.49263,-5.9701 -0.0206,-0.3006 -0.0491,-0.90258 -0.0491,-0.90258 4.43199,-3.98055 2.86172,-2.36799 6.51367,-6.10937 L 313.5,129.09961 313.40039,134 c 0,2.8 -0.30117,5.29922 -0.70117,5.69922 -1,1 -0.79922,4.30078 0.30078,4.30078 1,0 3.20039,-6.89961 2.40039,-8.09961 -0.2,-0.4 0,-1.00078 0.5,-1.30078 0.5,-0.3 1.19961,-3.00039 1.59961,-5.90039 0.3,-2.8 1.09961,-6.39883 1.59961,-7.79883 0.6,-1.6 0.70117,-3.9 0.20117,-6 z"
           style="fill:#ff9921;fill-opacity:1;stroke-width:0.1" />
        <path
           sodipodi:nodetypes="ccccc"
           inkscape:connector-curvature="0"
           style="fill:#ff9921;fill-opacity:1"
           id="path109"
           d="m 2262.945,1648.3632 c -4.712,-5.476 -14.4123,-15.8539 -23.803,-25.6192 12.7007,-10.521 40.1235,-35.7095 51.0021,-45.1292 9.007,8.7379 38.9979,39.1513 48.2354,50.1207 -22.6954,7.9112 -59.3712,18.6995 -75.4345,20.6277 z" />
        <path
           inkscape:connector-curvature="0"
           style="fill:#ff9921;fill-opacity:1"
           id="path113"
           d="m 3365,1580 c -10,-11 -15,-23 -12,-27 4,-3 -1,-12 -11,-19 -9,-7 -13,-16 -9,-21 9,-8 29,14 53,60 17,32 5,36 -21,7 z" />
        <path
           sodipodi:nodetypes="ccccc"
           inkscape:connector-curvature="0"
           style="fill:#ff9921;fill-opacity:1"
           id="path115"
           d="m 2190.5417,1570.399 c 34.1555,-2.9254 52.537,-13.0246 79.4434,-15.2604 1.4926,1.6053 5.3625,6.0183 7.3483,7.9029 -12.9298,10.2815 -34.7825,31.6157 -51.1794,44.7804 -7.5637,-7.1646 -12.8677,-12.5109 -35.6123,-37.4229 z" />
        <path
           inkscape:connector-curvature="0"
           style="fill:#ff9921;fill-opacity:1"
           id="path119"
           d="m 3298,1478 c -22,-18 -43,-87 -30,-100 11,-11 21,1 38,47 6,17 15,38 19,48 8,20 -4,22 -27,5 z" />
        <path
           inkscape:connector-curvature="0"
           style="fill:#ff9921;fill-opacity:1"
           id="path121"
           d="m 3370,1472 c 0,-8 71,-52 84,-52 20,0 0,23 -36,40 -48,23 -48,23 -48,12 z" />
        <path
           inkscape:connector-curvature="0"
           style="fill:#ff9921;fill-opacity:1"
           id="path123"
           d="m 3235,1310 c -19,-21 -15,-36 8,-27 15,6 30,47 18,47 -5,0 -16,-9 -26,-20 z" />
        <path
           inkscape:connector-curvature="0"
           style="fill:#ff9921;fill-opacity:1"
           id="path131"
           d="m 3219,1223 c -11,-30 -2,-110 14,-120 7,-4 8,13 4,52 -3,32 -1,67 4,77 7,12 6,18 -1,18 -6,0 -15,-12 -21,-27 z" />
        <path
           inkscape:connector-curvature="0"
           style="fill:#ff9921;fill-opacity:1"
           id="path133"
           d="m 3825,1064 c -7,-24 -75,-60 -131,-69 -22,-4 -46,-9 -54,-12 -16,-5 -95,-15 -120,-15 -34,1 -116,10 -130,14 -33,11 -113,28 -116,25 -9,-9 10,-46 29,-55 19,-9 17,-10 -11,-5 -33,6 -33,5 -21,-15 7,-12 26,-24 41,-28 16,-3 25,-10 22,-15 -4,-6 -10,-6 -17,-1 -7,5 -26,13 -44,17 l -32,6 15,-30 c 12,-25 24,-32 72,-42 172,-38 341,-26 471,32 l 64,29 -7,62 c -3,35 -10,77 -15,93 -9,27 -10,28 -16,9 z M 3367,883 c -4,-3 -10,-3 -14,0 -3,4 0,7 7,7 7,0 10,-3 7,-7 z" />
        <path
           inkscape:connector-curvature="0"
           style="fill:#ff9921;fill-opacity:1"
           id="path135"
           d="m 3205,1013 c -4,-16 -9,-46 -11,-68 -4,-36 -3,-38 12,-23 10,10 17,36 19,67 3,55 -8,68 -20,24 z" />
      </g>
      <path
         sodipodi:nodetypes="cccscsc"
         inkscape:connector-curvature="0"
         style="fill:#ff9921;fill-opacity:1"
         id="path279"
         d="m 3363,2343 c -11,-33 -76,-178 -110,-247 -23,-46 -33,-76 -29,-92 4,-13 10,-24 15,-24 4,0 34,66 66,148 70,178 90.5355,241.7227 77.5355,241.7227 -5,0 -8.4644,4.3744 -19.5355,-26.7227 z" />
    </g>
    <path
       d="m 3912,2351 c 7,-19 218,-180 223,-171 4,6 -9,23 -27,38 -18,15 -61,53 -96,85 -35,31 -73,57 -84,57 -11,0 -18,-4 -16,-9 z"
       id="path281"
       inkscape:connector-curvature="0" />
    <path
       d="m 2956,2245 c -141,-123 -154,-135 -140,-135 10,0 255,189 294,226 12,12 11,14 -10,14 -17,-1 -64,-35 -144,-105 z"
       id="path283"
       inkscape:connector-curvature="0" />
    <path
       d="m 4034,2331 c 36,-39 135,-111 141,-101 10,16 -112,120 -141,120 -16,0 -16,-1 0,-19 z"
       id="path287"
       inkscape:connector-curvature="0" />
    <path
       d="m 2746.1496,2088.7701 c 10.8501,-14.556 26.1009,-32.2092 40.3495,-47.9576 17.1279,-18.931 32.1943,-34.1019 41.0009,-29.125 7.348,11.8535 -2.6243,24.9039 -19.6195,45.9775 -19.1485,23.7437 -41.5975,54.5225 -49.818,54.5225 -6,0 -6.0379,-12.7924 -11.9129,-23.4174 z"
       id="path289"
       inkscape:connector-curvature="0"
       sodipodi:nodetypes="cscssc" />
    <path
       d="m 2705,2011 c -10.4227,-20.8454 -18.6121,-35.1821 -17.7031,-45.9053 0.8352,-9.8534 9.6967,-16.4836 24.0627,-26.0609 11.4111,-7.6074 21.4276,-15.6176 29.5717,-15.4642 8.9847,0.1692 15.9303,9.3148 25.372,18.232 11.2558,10.0498 19.5878,21.4647 18.6986,35.8857 -0.6358,10.3119 -7.2826,22.7008 -15.0003,34.749 -8.338,13.0163 -23.125,29.5824 -37.0999,45.4206 0,0 -1.3464,0.4468 -27.9017,-46.8569 z"
       id="path291"
       inkscape:connector-curvature="0"
       sodipodi:nodetypes="cssscsscc" />
    <path
       d="m 4327,2019 c -57,-51 -69,-75 -43,-85 12,-4 88,48 140,97 11,10 -11,39 -28,39 -7,0 -38,-23 -69,-51 z"
       id="path293"
       inkscape:connector-curvature="0" />
    <path
       d="m 4406,1936 c -59,-67 -64,-76 -43,-76 22,0 141,115 133,128 -14,23 -34,11 -90,-52 z"
       id="path295"
       inkscape:connector-curvature="0" />
    <path
       d="m 3963,1938 c -31,-60 -23,-133 24,-229 40,-81 63,-168 63,-233 l -1,-31 -15,28 c -20,36 -25,34 -13,-5 11,-41 11,-58 1,-58 -10,0 -102,190 -102,209 0,6 -5,11 -11,11 -6,0 -8,-9 -4,-20 11,-34 56,-194 62,-217 11,-45 -16,-22 -32,28 -22,66 -30,58 -9,-10 12,-41 13,-56 3,-67 -19,-23 -26,-17 -49,39 -11,28 -18,41 -16,27 17,-87 18,-139 2,-161 -9,-13 -16,-43 -16,-69 v -45 l 29,50 c 35,61 120,159 173,200 36,28 38,32 38,86 0,63 -27,150 -68,218 -15,25 -32,60 -39,76 -14,37 -16,145 -3,179 13,36 4,32 -17,-6 z"
       id="path297"
       inkscape:connector-curvature="0" />
    <path
       d="m 2651.3258,1907.7903 c -9,-18 -15.513,-25.442 -1.513,-41.442 16,-18 29.3856,-20.2097 45.3856,-5.2097 9.7294,8.6484 17.9564,13.661 17.3258,22.2847 -0.536,7.3308 -6.9678,18.5839 -14.779,31.4493 -36.6341,52.2646 -17.6197,42.6165 -46.4194,-7.0823 z"
       id="path299"
       inkscape:connector-curvature="0"
       sodipodi:nodetypes="cccscc" />
    <path
       d="m 3181,1889 c -1,-42 -3,-98 -6,-125 l -5,-49 19,55 18,55 7,-50 c 12,-79 17,-77 11,5 -2,41 -13,100 -24,130 l -20,55 z"
       id="path301"
       inkscape:connector-curvature="0" />
    <path
       d="m 4476,1881 c -44,-44 -64,-71 -56,-76 6,-4 19,-1 28,7 127,105 133,110 121,124 -6,8 -14,14 -18,14 -4,0 -37,-31 -75,-69 z"
       id="path303"
       inkscape:connector-curvature="0" />
    <path
       d="m 4548,1832 c -38,-45 -54,-70 -47,-77 12,-12 144,119 134,135 -12,20 -31,8 -87,-58 z"
       id="path305"
       inkscape:connector-curvature="0" />
    <path
       d="m 2582.7305,1813.285 c 13.3744,-10.0675 15.8276,-11.9254 28.6664,-14.7867 4.6629,-0.7678 18.4081,8.6291 22.0823,12.3856 10.4885,10.7234 -2.4792,24.1048 -18.7227,50.5468 -16.4943,-21.5042 -17.7301,-21.5368 -32.026,-48.1457 z"
       id="path309"
       inkscape:connector-curvature="0"
       sodipodi:nodetypes="ccscc" />
    <path
       d="m 4097,1797 c 33,-100 60,-260 44,-265 -14,-5 -15,-92 -1,-92 6,0 53,14 105,32 85,29 94,35 89,53 -15,49 -97,266 -99,263 -2,-2 5,-41 16,-88 34,-154 20,-185 -33,-72 -35,75 -124,228 -136,236 -4,3 2,-28 15,-67 z"
       id="path311"
       inkscape:connector-curvature="0" />
    <path
       d="m 2553.9523,1767.1462 c -1.5051,-5.8901 -1.598,-11.5116 -0.3592,-11.133 1.5194,0.4643 3.6793,0.8813 6.1677,2.2095 4.411,2.3543 14.861,5.8434 8.2941,16.5146 -6.6251,10.7656 -6.3567,11.3709 -8.21,8.9288 -1.7996,-2.3712 -2.6426,-3.8012 -5.8926,-16.5199 z"
       id="path315"
       inkscape:connector-curvature="0"
       sodipodi:nodetypes="ssssss" />
    <path
       d="m 4597.4645,1778.8726 c -19.4194,-27.9436 3.7452,-30.3145 26.779,-28.0598 18.8839,2.6742 34.5841,6.6742 51.4377,11.266 -15.5983,13.9891 -39.635,36.9022 -49.4251,46.4559 -11.7789,-11.6595 -22.9713,-21.6737 -28.7916,-29.6621 z"
       id="path319"
       inkscape:connector-curvature="0"
       sodipodi:nodetypes="ccccc" />
    <path
       d="m 4308.1021,1769.8909 c 23.2638,-18.1132 125.4729,-73.9583 139.296,-79.4802 16.0328,2.4331 32.0512,25.0425 31.8813,28.8623 -0.1215,6.2986 -5.4957,6.9538 -24.173,19.2267 -13.3591,8.7784 -66.9655,16.1483 -94.1064,21.8128 z"
       id="path321"
       inkscape:connector-curvature="0"
       sodipodi:nodetypes="cccscc" />
    <path
       d="m 4667.0607,1730.1182 c -10.1785,-0.68 -24.3053,-0.9202 -30.1232,-6.8682 -5.8754,-6.0067 8.5728,-21.4164 15.625,-30.3438 10.2568,-12.984 21.2423,-21.4217 35.3109,-34.7358 26.5687,4.6547 68.634,12.2315 84.3141,15.5171 -16.25,15.25 -47.1294,43.4363 -60.0669,56.1238 -15.7779,0.8024 -29.7531,1.3295 -45.0599,0.3069 z"
       id="path327"
       inkscape:connector-curvature="0"
       sodipodi:nodetypes="ssscccs" />
    <path
       d="m 3976,1648 c 10,-34 33,-75 34,-60 0,17 -27,82 -35,82 -4,0 -3,-10 1,-22 z"
       id="path331"
       inkscape:connector-curvature="0" />
    <path
       d="m 3822,1608 c 10,-45 18,-61 18,-36 0,30 -13,78 -20,78 -4,0 -4,-19 2,-42 z"
       id="path333"
       inkscape:connector-curvature="0" />
    <path
       d="m 3590,1253 c -40.5,-5.25 -40.8536,-44.8057 -47.8536,-53.8057 0.75,16.5 1.58,41.789 0.58,50.789 0,7 -11.0167,-0.3625 -27.0167,-0.3625 -7.1662,0 -14.3243,-2.2486 -24.4822,-1.4576 -0.7764,-10.4785 2.4253,-25.4185 0.7725,-61.4132 0.5471,-28.1032 5.1711,-44.5499 -10.2631,-58.3775 -30.0396,-33.1646 -123.3826,-75.3863 -131.6197,-108.3725 26.6339,-19.4551 263.6289,-19.7756 332.8906,-8.0078 l -15.9367,15.5208 -47.3214,46.7637 c -22.1875,25.5 -77.361,67.1208 -35.361,63.1208 33.2936,-32.5625 73.1594,-56.9037 81.9863,-67.2138 38.625,-33.125 59.5574,-38.6742 110.5574,-3.6742 35,25 28.9515,44.0486 31.9515,84.0486 2,37 4.7452,72.4229 -16.2548,91.4229 C 3774.0971,1269.1196 3637,1271 3590,1253 Z"
       id="path351"
       inkscape:connector-curvature="0"
       sodipodi:nodetypes="cccsccccccccccccc" />
    <path
       style="fill:#ffffff;fill-opacity:1;stroke-width:0.1"
       d="m 336.3457,114.32617 c -0.11597,0.0179 -0.23614,0.0312 -0.34961,0.0508 -1.79579,0.30923 -3.27189,1.73558 -5.04297,2.10938 1.41198,0.99774 1.75666,1.65558 2.66602,2.36719 2.18614,1.51386 7.79486,1.64571 9.61133,-0.0449 -0.19626,-1.51939 -1.32567,-3.06709 -2.67969,-3.95703 a 2.5625,2.75 0 0 1 0.29297,1.27344 2.5625,2.75 0 0 1 -2.5625,2.75 2.5625,2.75 0 0 1 -2.5625,-2.75 2.5625,2.75 0 0 1 0.62695,-1.79883 z"
       transform="scale(10)"
       id="path355"
       inkscape:connector-curvature="0" />
    <path
       d="m 3726,764 c -3,-8 -10,-12 -16,-9 -5,3 -10,-2 -10,-11 0,-16 -1,-16 -14,1 -19,26 -44,12 -49,-27 l -4,-33 -1,33 c -2,34 -22,46 -22,12 0,-11 -4,-20 -10,-20 -5,0 -10,9 -10,20 0,11 -7,20 -15,20 -11,0 -15,-12 -16,-42 l -1,-43 -9,33 c -17,56 -53,39 -62,-29 -6,-42 -4,-47 15,-52 64,-17 199,44 247,111 19,27 19,28 1,40 -14,9 -19,8 -24,-4 z"
       id="path361"
       inkscape:connector-curvature="0" />
  </g>
  <g
     id="layer105"
     style="fill:#fb8e01;stroke:none"
     transform="translate(240.00021,1592.5865)" />
  <g
     id="layer106"
     style="fill:#d7bb98;stroke:none"
     transform="translate(240.00021,1592.5865)" />
  <g
     id="layer107"
     style="fill:#d1d1d1;stroke:none"
     transform="translate(240.00021,1592.5865)" />
  <g
     inkscape:groupmode="layer"
     id="layer10"
     inkscape:label="INSURGENT"
     style="display:inline"
     transform="translate(240.00021,2820.0001)">
    <g
       inkscape:groupmode="layer"
       id="layer1"
       inkscape:label="N 2"
       style="display:inline">
      <path
         d="M 3735.441,1450.5364 V 1262.856 l 21.3987,-0.1555 c 23.8571,-0.055 42.5198,-4.6924 64.1371,-4.8272 19.1001,0 40.6917,-0.8304 47.3353,-2.4913 9.9653,-2.4913 14.0137,11.5224 15.2594,44.325 2.2837,7.8892 -3.5294,26.7817 17.8545,24.7057 14.429,1.0381 11.211,-6.955 62.9062,7.7854 23.6676,10.1729 53.356,18.5812 73.0791,32.4911 11.4186,5.9169 17.6469,10.8996 28.4427,20.2421 11.6262,4.9827 21.6953,19.1002 25.0171,26.5742 19.6193,24.4981 36.6434,52.318 43.2869,52.318 3.3218,0 8.2007,-43.1831 8.2007,-115.4318 v -132.0405 l 20.7611,-4.9828 c 11.6262,-3.3217 38.2004,-7.4739 59.792,-9.9653 21.5915,-2.4913 46.6617,-9.5919 51.1174,-8.3044 9.2186,4.0857 10.61,98.0692 10.726,220.9749 -1.7026,29.5606 2.2104,61.7535 0.8377,90.6459 -2.8008,58.9424 4.9511,159.708 3.861,235.262 0,0 -0.9395,70.0815 -2.3477,100.1394 -0.706,15.0692 -2.4714,45.0333 -5.824,61.2521 -3.2628,15.7858 -6.5386,27.2407 -12.0756,39.9374 -2.3878,5.4754 -8.8898,14.7117 -13.9407,20.8072 -6.8235,8.2348 -12.8591,14.6464 -12.8591,14.6464 0,0 -9.8037,4.5019 -14.4121,7.2833 -29.6069,17.87 -127.1583,2.1256 -127.1583,2.1256 l -0.5027,-120.6712 4.9179,-123.0586 -9.9885,-78.5462 -9.4703,-39.4935 -13.1107,-27.3247 -8.1924,-12.8408 c -3.0622,-2.9964 -5.53,-7.2092 -8.4837,-10.0534 -25.6116,-24.6618 -46.922,-41.7064 -49.5288,-43.1469 -4.9308,-2.7249 -19.9825,-10.9256 -37.37,-24.0829 -30.7264,-24.0829 -80.7606,-41.5741 -82.4216,-30.7783 0,3.3218 -3.4256,35.8128 -4.256,78.9959 0,0 3.4917,97.0425 -1.0942,143.252 -3.9829,40.1315 -0.4777,85.4278 -0.4777,85.4278 l 2.8395,39.0774 0.9589,43.5294 c 0,0 -0.2808,19.8993 0.057,23.098 0.7805,7.4033 0.2975,11.1538 0.2975,11.1538 l -1.1092,9.9799 -1.2258,6.6026 c 0,0 -2.7651,29.2921 -7.2748,34.2051 -32.5962,35.5121 -139.9593,-9.3389 -139.9593,-9.3389 z"
         id="path608"
         inkscape:connector-curvature="0"
         sodipodi:nodetypes="ccccsccccccssccsccscsssscscccccccsscccscccscccscc"
         style="fill:#ffffff;stroke-width:0.83044422" />
    </g>
    <g
       inkscape:groupmode="layer"
       id="layer7"
       inkscape:label="S"
       style="display:inline">
      <path
         d="m 3170.2302,1954.1382 c -34.1927,-22.4953 -56.6879,-53.9886 -73.7843,-104.3778 -17.0963,-51.2891 -18.8959,-49.4895 57.5878,-78.2834 84.582,-31.4933 95.3797,-31.4933 111.5762,0 12.5974,23.3951 19.7958,27.8941 49.4895,27.8941 59.3874,0 117.8749,-10.7977 117.8749,-21.5954 0,-6.2987 -43.1908,-51.2891 -96.2795,-100.7786 -94.4799,-87.2814 -230.3509,-224.0522 -233.9502,-235.7497 -0.8998,-3.5992 11.6976,-16.1966 27.8941,-28.7939 36.8921,-26.9943 33.2929,-35.9923 -11.6975,-35.9923 -18.896,0 -35.9923,-1.7996 -38.6918,-4.499 -6.2986,-7.1985 18.896,-142.1698 28.7939,-152.0677 4.499,-4.499 40.4914,-3.5992 87.2814,1.7996 43.1908,6.2987 132.2718,17.0964 196.1582,25.1947 150.268,17.9961 175.4627,25.1946 204.2565,54.8883 24.2948,26.0944 56.6879,116.0752 44.0906,124.1735 -4.499,1.7996 -43.1908,7.1985 -86.3816,9.8979 -67.4856,5.3989 -80.9827,4.4991 -89.9808,-8.0983 -16.1966,-22.4951 -53.9885,-33.2929 -115.1755,-33.2929 l -55.7881,0.8998 122.3739,118.7747 c 67.4856,65.686 143.0696,134.9713 168.2642,154.7671 59.3873,47.6898 67.4856,62.0868 66.5858,123.2738 -0.8998,60.2871 -9.8979,79.183 -49.4894,109.7765 -35.0926,26.9943 -41.3912,27.8941 -235.7498,50.3893 -184.4607,21.5954 -165.5648,21.5954 -195.2585,1.7997 z"
         id="path380"
         style="fill:#ffffff;stroke-width:0.89980835"
         inkscape:connector-curvature="0" />
    </g>
    <g
       inkscape:groupmode="layer"
       id="layer9"
       inkscape:label="I"
       style="display:inline">
      <path
         d="m 2735.1464,1921.5612 c 6.0509,-99.5028 7.3955,-102.1921 34.2882,-107.5706 l 22.8588,-4.0339 V 1598.177 1387.0695 l 21.5141,-18.1526 20.8418,-18.1525 -16.1356,-4.0339 c -8.7401,-2.6892 -28.2372,-5.3785 -43.0282,-5.3785 -45.0453,-1.3447 -45.7175,-2.0169 -37.6498,-88.7458 4.034,-42.356 7.3955,-78.661 7.3955,-81.3503 0,-8.0679 22.8588,-6.7232 69.2487,4.0338 38.322,9.4125 119.6723,26.8927 158.6666,34.9605 14.791,3.3616 15.4634,4.7063 11.4295,48.4068 -10.7571,110.2599 -10.0848,109.5877 -29.582,107.5707 l -18.1526,-2.017 -2.0169,216.486 -1.3446,216.486 24.8757,2.017 25.548,2.0169 -2.0169,67.2316 c -2.6893,65.8871 -6.0509,78.6611 -22.8588,81.3504 -4.7062,0.6723 -45.0452,8.0677 -89.4181,16.1356 -44.3729,8.0678 -94.1243,16.1355 -110.26,18.1525 l -28.9096,3.3616 z"
         id="path372"
         style="fill:#ffffff;stroke-width:0.67231667"
         inkscape:connector-curvature="0" />
    </g>
  </g>
  <path
     d="m 3962.2307,2772.6807 c 9.0936,-7.1161 12.5355,-13.6967 26.6552,-23.6741 -17.7108,-3.738 -35.1716,-12.4134 -53.0866,-17.5536 -15.2699,-4.3812 -51.453,-10.2085 -67.2282,5.8258 -8.1929,8.3275 -0.3046,18.3003 -2.4565,34.96 18.1647,16.9064 74.2547,15.5805 96.1161,0.4419 z"
     id="path355-2-8"
     style="fill:#000000;fill-opacity:1;stroke-width:1"
     inkscape:connector-curvature="0"
     sodipodi:nodetypes="ccsacc" />
  <path
     style="fill:#ffffff;fill-opacity:1;stroke-width:1"
     d="m 3924.3747,2728.7245 c 1.7289,3.7674 2.2994,8.9594 2.3052,13.159 0,15.1878 -11.4727,27.5 -25.625,27.5 -14.1523,0 -25.625,-12.3122 -25.625,-27.5 0.01,-3.8289 0.758,-7.6141 2.207,-11.1133 -0.05,0.03 -0.107,0.03 -0.156,0.06 -15.2564,8.2784 -28.5903,25.3715 -30.7422,42.0312 18.1647,16.9064 74.2519,15.5879 96.1133,0.449 9.0936,-7.1161 12.5404,-13.6945 26.6601,-23.6719 -16.0427,-3.3859 -29.366,-16.3808 -45.1372,-20.9129 z"
     id="path355-2"
     inkscape:connector-curvature="0"
     sodipodi:nodetypes="ccsccccccc" />
</svg>
